:version 1.10
:name ASF
:units
  mass 1
  length 1
  angle deg
:documentation
  ASF file generated by Kaydara
:root
  axis xyz
  order  tx ty tz rx ry rz
  position 0 0 0
  orientation 0 0 0
:bonedata
  begin
    id 1
    name RightUpLegDummy
    direction -0.65628 -0.754516 0.00165102
    length 4.76918
    axis 0 0 0 xyz
  end
  begin
    id 2
    name RightUpLeg
    direction -0.145584 -0.923362 0.355256
    length 17.9961
    axis -24.7611 -13.1006 1.78531 xyz
    dof rx ry rz
  end
  begin
    id 3
    name RightLeg
    direction 0.263379 0.172355 -0.949171
    length 13.3386
    axis 89.6202 -21.1929 12.3855 xyz
    dof rx ry rz
  end
  begin
    id 4
    name RightFoot
    direction 0.224283 -0.968777 -0.105675
    length 5.86697
    axis 56.995 -39.6905 17.3365 xyz
    dof rx ry rz
  end
  begin
    id 5
    name RightToes
    direction -0.0806345 -0.9037 0.420506
    length 4.75197
    axis 146.825 -39.7828 17.6019 xyz
    dof rx ry rz
  end
  begin
    id 6
    name SpineDummy
    direction -3.39852e-014 1 9.33296e-014
    length 8.13779
    axis 0 0 0 xyz
  end
  begin
    id 7
    name Spine
    direction -0.156609 0.733703 0.661176
    length 7.14978
    axis 41.2365 5.68757 17.0844 xyz
    dof rx ry rz
  end
  begin
    id 8
    name Spine1
    direction 0 0 0
    length 0
    axis 42.8809 47.8308 -3.36039 xyz
    dof rx ry rz
  end
  begin
    id 9
    name HEadDummy
    direction 0.546431 0.701947 0.456819
    length 3.55512
    axis 42.8809 47.8308 -3.36039 xyz
  end
  begin
    id 10
    name HEad
    direction 0.23444 0.828559 0.508457
    length 7.35827
    axis 51.1864 49.2662 27.4903 xyz
    dof rx ry rz
  end
  begin
    id 11
    name LeftShoulder1Dummy
    direction 0.431183 0.475873 -0.766568
    length 2.49352
    axis 42.8809 47.8308 -3.36039 xyz
  end
  begin
    id 12
    name LeftShoulder1
    direction 0.268187 -0.383402 -0.883786
    length 4.48604
    axis -119.517 0.106469 35.1736 xyz
    dof rx ry rz
  end
  begin
    id 13
    name LeftArm
    direction 0.380567 -0.703221 -0.600541
    length 10.1142
    axis -5.41825 36.2925 7.8293 xyz
    dof rx ry rz
  end
  begin
    id 14
    name LeftForeArm
    direction 0.541071 -0.732356 -0.413396
    length 9.39839
    axis 4.65387 33.7604 7.81644 xyz
    dof rx ry rz
  end
  begin
    id 15
    name LeftHand
    direction 0.847511 -0.389379 -0.360707
    length 3.66142
    axis 7.65593 21.1436 -24.6758 xyz
    dof rx ry rz
  end
  begin
    id 16
    name RightShoulderDummy
    direction -0.692546 0.541855 0.476208
    length 2.49352
    axis 42.8809 47.8308 -3.36039 xyz
  end
  begin
    id 17
    name RightShoulder
    direction -0.870808 -0.316653 0.376065
    length 4.48602
    axis 141.571 51.133 -100.254 xyz
    dof rx ry rz
  end
  begin
    id 18
    name RightArm
    direction 0.366897 -0.87275 0.322015
    length 10.1142
    axis 92.3258 71.2036 138.917 xyz
    dof rx ry rz
  end
  begin
    id 19
    name RightForeArm
    direction 0.702487 -0.694568 0.155197
    length 9.39835
    axis 153.863 41.5092 -176.604 xyz
    dof rx ry rz
  end
  begin
    id 20
    name RightHand
    direction 0.79502 -0.601276 0.0800636
    length 3.66142
    axis 154.247 4.59222 142.9 xyz
    dof rx ry rz
  end
  begin
    id 21
    name LeftUpLegDummy
    direction 0.65628 -0.754516 0.00165102
    length 4.76919
    axis 0 0 0 xyz
  end
  begin
    id 22
    name LeftUpLeg
    direction -0.1277 -0.689368 0.713067
    length 17.9961
    axis -48.3385 -17.8675 0.791927 xyz
    dof rx ry rz
  end
  begin
    id 23
    name LeftLeg
    direction 0.109849 -0.991246 -0.0732378
    length 13.3386
    axis -2.05791 -7.30784 1.72042 xyz
    dof rx ry rz
  end
  begin
    id 24
    name LeftFoot
    direction 0.0448355 -0.272614 0.961078
    length 5.86697
    axis -18.7733 -7.89606 10.2113 xyz
    dof rx ry rz
  end
  begin
    id 25
    name LeftToes
    direction -0.18506 0.293668 0.937823
    length 4.75197
    axis 71.2267 -7.89606 10.2113 xyz
    dof rx ry rz
  end
:hierarchy
  begin
    root RightUpLegDummy SpineDummy LeftUpLegDummy
    RightUpLegDummy RightUpLeg
    RightUpLeg RightLeg
    RightLeg RightFoot
    RightFoot RightToes
    SpineDummy Spine
    Spine Spine1
    Spine1 HEadDummy LeftShoulder1Dummy RightShoulderDummy
    HEadDummy HEad
    LeftShoulder1Dummy LeftShoulder1
    LeftShoulder1 LeftArm
    LeftArm LeftForeArm
    LeftForeArm LeftHand
    RightShoulderDummy RightShoulder
    RightShoulder RightArm
    RightArm RightForeArm
    RightForeArm RightHand
    LeftUpLegDummy LeftUpLeg
    LeftUpLeg LeftLeg
    LeftLeg LeftFoot
    LeftFoot LeftToes
  end

:SAMPLES-PER-SECOND 30
:FULLY-SPECIFIED
:DEGREES
318
root  3.95513 17.2186 4.62424 -108.045 -14.0208 -29.5413
RightUpLeg  -20.5381 7.03017 -53.3003
RightLeg  -107.774 -10.1146 19.7743
RightFoot  29.1576 12.3495 -27.1704
RightToes  -1.27222e-014 -6.36111e-015 6.36111e-015
Spine  -17.1594 -10.5527 -0.53468
Spine1  17.7084 -12.8384 43.0891
HEad  35.0244 -26.7399 -8.39663
LeftShoulder1  6.36111e-015 -1.33558e-015 6.49777e-015
LeftArm  73.2059 31.0948 57.4839
LeftForeArm  1.96159 -83.8891 21.5608
LeftHand  11.7441 19.5769 14.1522
RightShoulder  -4.77083e-015 -6.36111e-015 -3.18055e-015
RightArm  129.687 -34.8714 -85.0195
RightForeArm  -12.3058 -4.66255 -9.50524
RightHand  10.9367 -10.7556 -37.1438
LeftUpLeg  9.90196 13.7359 63.6221
LeftLeg  -34.3787 25.5018 -17.0833
LeftFoot  -7.71981 0.095766 -0.225893
LeftToes  9.54166e-015 -1.91609e-011 -2.3878e-011
319
root  4.38403 16.8809 5.71106 -116.433 -7.08019 -18.8983
RightUpLeg  -15.8592 13.4927 -52.8707
RightLeg  -100.358 -11.6979 25.115
RightFoot  29.2397 12.0977 -26.8294
RightToes  -1.27222e-014 -6.36111e-015 6.36111e-015
Spine  -15.6102 -11.4876 -3.18304
Spine1  19.6628 -13.0105 43.3436
HEad  37.4767 -24.8983 -14.3058
LeftShoulder1  6.36111e-015 -1.33558e-015 6.49777e-015
LeftArm  81.348 30.8933 56.5266
LeftForeArm  -12.7416 -86.1675 37.6577
LeftHand  9.4257 18.5983 7.98588
RightShoulder  -4.77083e-015 -6.36111e-015 -3.18055e-015
RightArm  133.368 -41.8442 -86.3364
RightForeArm  -2.6305 -8.15039 5.85858
RightHand  9.5479 -10.3313 -32.7782
LeftUpLeg  1.8683 14.9956 64.4038
LeftLeg  -38.8824 22.8852 -21.8175
LeftFoot  -8.40868 1.61648 -7.21742
LeftToes  9.54166e-015 -1.91609e-011 -2.3878e-011
320
root  5.38968 16.2844 6.41893 -119.241 1.5474 -6.31485
RightUpLeg  -9.81727 13.439 -46.1772
RightLeg  -98.2789 -12.6343 23.0406
RightFoot  30.2511 10.0699 -24.1329
RightToes  -1.27222e-014 -6.36111e-015 6.36111e-015
Spine  -15.287 -10.4992 -2.76299
Spine1  20.6835 -12.2303 41.8368
HEad  39.0454 -21.5898 -18.0254
LeftShoulder1  6.36111e-015 -1.33558e-015 6.49777e-015
LeftArm  86.6528 32.6612 47.4333
LeftForeArm  17.6481 -77.7941 3.38553
LeftHand  9.18588 16.9071 10.0418
RightShoulder  -4.77083e-015 -6.36111e-015 -3.18055e-015
RightArm  132.201 -42.1069 -90.0136
RightForeArm  3.60491 -3.1443 9.24496
RightHand  11.5527 -10.7288 -39.3968
LeftUpLeg  -9.74555 18.855 62.2784
LeftLeg  -35.2149 10.965 -12.8621
LeftFoot  -10.1398 0.852189 -3.96454
LeftToes  9.54166e-015 -1.91609e-011 -2.3878e-011
321
root  6.41634 15.6912 6.66319 -118.26 14.2307 7.74281
RightUpLeg  -7.04102 6.34786 -41.4552
RightLeg  -93.7936 -13.8549 17.1399
RightFoot  27.6086 10.0421 -24.0722
RightToes  -1.27222e-014 -6.36111e-015 6.36111e-015
Spine  -10.6767 -10.2156 -4.35775
Spine1  21.3743 -9.73584 34.8697
HEad  37.9513 -23.5931 -16.1329
LeftShoulder1  6.36111e-015 -1.33558e-015 6.49777e-015
LeftArm  82.8576 37.6466 22.4183
LeftForeArm  17.2035 -55.8754 -3.81111
LeftHand  10.2205 16.435 14.7047
RightShoulder  -4.77083e-015 -6.36111e-015 -3.18055e-015
RightArm  127.723 -38.85 -93.4419
RightForeArm  8.07962 1.99479 7.52025
RightHand  15.3516 -10.2769 -52.9758
LeftUpLeg  -17.2505 18.827 59.7973
LeftLeg  -32.4134 4.58208 -7.23985
LeftFoot  -10.7364 1.12421 -5.44976
LeftToes  9.54166e-015 -1.91609e-011 -2.3878e-011
322
root  7.24136 15.0521 6.32848 -110.726 29.6451 21.8529
RightUpLeg  -8.81656 -2.33088 -42.0177
RightLeg  -86.2598 -16.2733 14.8739
RightFoot  24.7753 6.34165 -18.7394
RightToes  -1.27222e-014 -6.36111e-015 6.36111e-015
Spine  -4.78723 -11.1719 -9.90627
Spine1  21.9364 -6.44201 25.8722
HEad  33.1034 -31.7928 -10.0377
LeftShoulder1  6.36111e-015 -1.33558e-015 6.49777e-015
LeftArm  69.0378 35.6598 -18.0902
LeftForeArm  8.11039 -30.0494 -5.43626
LeftHand  7.40893 16.5993 3.82134
RightShoulder  -4.77083e-015 -6.36111e-015 -3.18055e-015
RightArm  122.348 -37.9509 -93.7201
RightForeArm  7.96902 -0.450477 7.00259
RightHand  17.5374 -9.19122 -62.0123
LeftUpLeg  -20.267 16.7836 56.0857
LeftLeg  -33.6438 6.02308 -7.77966
LeftFoot  -10.9676 0.332785 -1.42524
LeftToes  9.54166e-015 -1.91609e-011 -2.3878e-011
323
root  7.83622 14.65 5.62933 -93.5658 44.4442 39.2591
RightUpLeg  -12.0761 -6.35299 -43.1845
RightLeg  -80.2472 -17.3286 11.9692
RightFoot  9.14023 26.1371 -55.7357
RightToes  -1.27222e-014 -6.36111e-015 6.36111e-015
Spine  -1.35817 -13.6731 -18.6362
Spine1  22.3213 -4.99017 17.838
HEad  28.0518 -39.092 -5.78414
LeftShoulder1  6.36111e-015 -1.33558e-015 6.49777e-015
LeftArm  60.3206 21.6885 -37.9083
LeftForeArm  6.96997 -19.3347 -13.0464
LeftHand  0.0575915 4.88703 -14.4376
RightShoulder  -4.77083e-015 -6.36111e-015 -3.18055e-015
RightArm  117.562 -40.2516 -91.7668
RightForeArm  5.62243 -7.02262 7.43293
RightHand  17.45 -8.38078 -63.712
LeftUpLeg  -22.508 14.4957 52.7646
LeftLeg  -37.4121 6.23626 -8.20516
LeftFoot  -8.23245 -0.0278285 0.342376
LeftToes  9.54166e-015 -1.91609e-011 -2.3878e-011
324
root  8.21719 14.5167 3.98879 -65.9665 51.3805 65.2243
RightUpLeg  -14.0463 -9.0536 -43.0422
RightLeg  -76.7659 -16.9446 8.64026
RightFoot  4.10292 26.7338 -60.4803
RightToes  -1.27222e-014 -6.36111e-015 6.36111e-015
Spine  -0.208154 -15.8508 -23.9289
Spine1  22.2684 -4.65276 12.0152
HEad  28.666 -40.9822 -7.84269
LeftShoulder1  6.36111e-015 -1.33558e-015 6.49777e-015
LeftArm  55.7083 9.95003 -42.4613
LeftForeArm  0.311721 -12.4371 -11.1317
LeftHand  -3.48347 -9.36591 -22.7672
RightShoulder  -4.77083e-015 -6.36111e-015 -3.18055e-015
RightArm  113.407 -41.8143 -91.4739
RightForeArm  4.05855 -10.1703 6.10014
RightHand  18.0217 -7.53559 -67.4809
LeftUpLeg  -25.6429 14.9533 51.5981
LeftLeg  -39.5314 5.23594 -7.93178
LeftFoot  -5.24596 0.840973 -3.26606
LeftToes  9.54166e-015 -1.91609e-011 -2.3878e-011
